<svg width="2588" height="520" viewBox="0 0 2588 520" fill="none" xmlns="http://www.w3.org/2000/svg">
<path d="M321.913 448.824C308.309 456.95 293.709 462.256 277.949 464.578C245.763 469.387 216.564 461.925 190.02 443.352C166.295 426.604 151.198 403.886 143.898 375.861C141.742 367.57 141.244 359.113 141.576 354.138C141.576 333.244 144.562 316.496 153.687 301.406C155.014 299.084 156.673 296.265 159.825 297.758C162.48 299.084 162.148 301.903 161.484 304.888C153.023 339.546 159.991 370.223 184.379 396.755C206.444 420.634 233.818 432.905 266.004 430.749C299.35 428.428 326.393 413.172 345.803 385.148C354.264 373.042 359.407 359.61 362.394 345.515C365.048 332.747 363.721 320.144 359.905 307.707C359.739 307.376 359.573 306.878 359.573 306.546C358.91 303.396 357.582 299.084 361.398 297.758C364.882 296.431 366.541 300.908 367.868 303.396C374.505 315.833 378.154 328.933 378.984 343.36C380.311 364.917 376.33 384.816 366.375 403.554C355.923 422.79 340.66 437.714 321.913 448.824ZM203.624 302.567C205.946 328.435 227.016 354.47 259.699 354.802C293.875 354.138 316.936 328.435 317.268 296.099C317.6 262.603 291.387 238.061 260.861 237.729C232.491 237.397 199.642 258.955 203.624 302.567ZM490.305 448.327C489.642 446.834 488.978 445.342 488.149 443.85C477.863 426.935 467.411 410.021 457.457 392.941C441.862 366.243 426.598 339.214 411.169 312.35C402.045 296.431 392.256 280.844 383.297 264.759C372.846 246.02 361.73 227.614 351.278 209.041C341.324 191.464 330.872 174.052 320.088 156.972C309.802 140.556 301.009 123.144 290.723 106.727C290.391 106.064 289.894 105.401 289.562 104.903L260.731 53.3611L260.529 53L260.321 53.3611L228.509 108.717C228.343 108.883 228.177 109.215 228.012 109.381C221.873 120.325 215.901 131.435 209.099 142.048C199.144 157.636 189.854 173.721 180.729 189.806C165.3 217.001 149.041 243.865 133.612 271.06C120.34 294.607 106.736 317.988 92.9659 341.204C72.3938 375.695 52.3194 410.685 32.0792 445.508C30.7519 447.829 27.9316 449.985 29.4247 452.638C31.0838 455.623 34.7336 454.131 37.3881 454.131C84.5048 454.297 131.787 454.131 178.904 454.131C180.563 454.131 182.222 454.131 183.881 453.965C185.374 453.965 186.867 453.633 187.531 452.141C188.361 450.317 187.199 448.824 186.038 447.664C182.72 444.513 178.738 443.352 174.093 443.352C150.866 443.518 127.806 443.352 104.579 443.352C89.316 443.352 74.0528 443.352 57.6284 443.352C59.1215 442.191 59.7851 441.694 60.2828 441.362C77.0391 430.252 93.6295 419.307 110.386 408.363C113.372 406.373 116.026 404.052 113.87 400.403C111.381 396.258 108.063 397.75 104.911 399.906C93.6295 407.534 82.348 415.162 70.9007 422.624C64.9281 426.438 59.6192 431.247 52.4853 434.398C52.8171 433.071 52.8171 432.408 53.1489 431.91C64.9281 413.669 75.546 394.765 86.4956 376.027C104.413 345.35 122.165 314.34 140.083 283.663C146.221 273.05 153.355 262.769 158.996 251.824C164.47 241.211 171.107 231.262 176.913 220.815C179.734 215.674 181.89 217.498 184.545 220.815C190.517 228.443 196.49 236.071 202.628 243.533C209.596 251.824 209.596 251.493 218.057 244.528C221.541 241.543 222.039 238.89 218.389 236.071C208.933 228.443 199.476 220.649 190.02 213.021C187.697 211.031 185.208 209.373 181.724 212.026C194.997 192.459 205.283 171.897 216.73 151.998C223.366 140.39 230.334 128.948 237.136 117.34L239.957 112.531C239.957 112.365 240.123 112.365 240.123 112.2L251.072 92.9638C251.736 92.4664 252.893 90.1977 253.723 90.0319C254.055 95.8358 254.058 102.253 254.556 108.717C254.556 115.766 254.39 117.174 254.556 121.32C254.722 125.134 256.713 126.626 259.865 126.626C263.515 126.626 265.008 124.471 264.842 120.491C264.51 112.863 264.676 105.235 264.676 97.6069C264.676 95.617 263.515 90.861 265.34 90.0319C265.34 91.0457 264.459 89.5094 265.34 90.2343C266.095 90.8557 267.34 92.9638 268.788 94.4255C270.671 97.6069 285.58 121.652 292.88 135.249C302.668 152.992 313.12 170.404 323.738 187.816C328.549 195.61 332.697 203.901 337.176 211.86C333.029 209.87 330.042 212.026 327.056 214.514C320.088 220.317 313.12 226.121 305.986 231.759C296.862 239.056 296.862 238.89 304.659 247.347C308.807 251.824 310.632 251.658 314.447 247.015C320.088 240.051 324.568 231.925 331.37 225.79C335.185 222.307 337.342 217.996 338.006 213.021C340.66 216.172 341.987 220.152 343.978 223.634C360.237 251.327 376.993 278.854 393.086 306.546C413.492 341.701 433.732 377.022 453.973 412.177C458.452 419.805 463.097 427.267 467.577 434.895C456.461 427.599 445.511 420.137 434.396 412.84C426.93 408.031 419.465 403.222 411.999 398.414C409.676 396.921 407.354 396.921 405.529 399.408C403.704 401.896 404.367 404.052 406.69 405.876C408.515 407.368 410.174 408.695 411.999 410.021C428.423 420.966 445.014 431.744 462.434 443.352C459.447 443.352 457.457 443.352 455.466 443.352C419.299 443.352 383.132 443.352 346.799 443.352C344.476 443.352 342.153 443.186 339.997 443.684C336.347 444.679 332.033 446.337 332.531 450.648C333.029 455.292 337.674 453.799 340.66 453.799C387.777 453.965 435.06 453.799 482.176 453.799C483.338 453.799 484.665 453.799 485.826 453.799C491.135 453.965 491.799 451.809 490.305 448.327ZM293.875 225.126C296.364 216.503 299.184 208.046 302.834 199.755C305.323 193.785 307.148 187.484 309.139 181.183C309.139 178.695 308.309 176.705 305.986 176.208C302.668 175.545 300.677 177.866 299.35 180.519C291.885 195.278 284.087 209.87 275.626 224.131C274.796 225.624 273.303 227.116 275.128 228.443C278.944 231.428 283.258 234.413 287.903 234.081C292.05 233.915 292.714 228.94 293.875 225.126ZM241.45 231.262C245.431 229.438 246.261 227.116 244.27 223.468C236.141 208.876 227.846 194.449 219.55 179.856C218.555 178.198 217.56 176.042 214.076 176.208C211.421 176.705 210.094 178.364 211.089 182.178C215.071 196.77 222.205 210.036 226.518 224.463C230.002 236.071 230.666 236.071 241.45 231.262ZM259.865 228.775C263.515 228.609 268.16 229.438 267.828 223.634C267.165 208.71 266.169 193.785 265.174 178.861C265.008 175.876 262.851 174.218 260.197 174.384C257.542 174.55 255.883 176.208 255.552 179.193C254.39 193.122 253.229 207.051 252.068 220.981C251.57 228.111 252.731 229.438 259.865 228.775ZM252.234 372.379C252.897 377.022 253.229 381.831 253.395 386.474C253.893 396.589 255.054 406.539 255.883 416.654C256.215 419.307 257.708 421.463 260.695 421.297C263.681 421.132 263.681 418.478 263.847 416.157C265.008 401.73 266.169 387.469 267.497 373.042C268.16 365.083 267.165 363.756 259.533 363.756C252.399 363.922 251.404 364.917 252.234 372.379ZM218.721 411.182C221.541 411.845 223.034 409.358 224.196 407.036C230.002 395.926 235.809 384.65 241.616 373.54C246.593 363.756 246.427 363.922 236.639 359.279C231.993 357.123 230.168 358.947 229.007 362.927C226.85 370.057 224.693 377.188 222.537 384.153C220.38 390.951 218.223 397.916 216.232 404.715C216.564 407.202 215.403 410.519 218.721 411.182ZM277.783 361.6C274.465 362.761 273.801 364.585 275.46 367.736C282.594 381.168 289.728 394.765 296.696 408.197C297.857 410.353 299.35 411.182 301.673 410.685C304.327 410.187 303.83 408.031 303.996 405.876C303.83 405.047 303.498 403.72 303.166 402.559C299.682 391.283 296.364 380.173 292.714 368.897C288.898 357.289 288.898 357.289 277.783 361.6ZM328.881 384.65C329.877 385.645 330.872 386.64 332.531 386.806C335.683 387.137 337.674 385.645 338.338 382.494C338.006 381.831 337.84 380.836 337.342 380.339C329.047 368.731 320.752 357.289 312.457 345.847C310.798 343.525 308.641 343.525 306.65 345.184C304.991 346.51 303.664 348.169 302.005 349.329C297.691 352.314 297.525 355.299 301.673 358.781C311.129 366.741 319.922 375.696 328.881 384.65ZM221.375 353.972C221.873 353.475 222.371 352.977 222.869 352.48C220.048 350.324 217.062 348.5 214.573 346.179C211.753 343.525 209.596 343.525 207.439 346.51C199.642 357.289 191.845 368.233 184.213 379.012C182.554 381.334 181.559 384.153 184.379 386.142C186.702 387.967 189.024 386.806 191.015 384.982C200.306 376.193 209.596 367.57 218.721 358.781C219.882 357.289 221.375 355.962 221.375 353.972ZM368.034 270.562C367.039 266.914 364.053 266.583 361.066 267.412C354.762 269.236 348.292 267.743 343.315 268.241C339.499 268.241 337.01 268.241 334.522 268.241C317.766 268.075 320.42 268.407 324.236 282.17C325.231 285.652 327.222 286.979 330.54 285.818C333.858 284.823 337.176 283.663 340.494 282.833C347.96 280.844 355.426 278.522 363.223 277.361C366.707 276.864 368.864 274.376 368.034 270.562ZM193.006 268.241C187.199 268.241 181.393 268.241 175.752 268.241V268.407C169.945 268.407 164.139 268.407 158.498 268.407C155.678 268.407 151.862 268.075 151.53 271.723C151.198 274.874 154.848 276.035 157.668 276.864C165.964 279.185 174.259 281.673 182.554 283.828C194.333 286.813 194.167 286.647 198.149 275.04C199.974 269.567 197.817 268.241 193.006 268.241ZM195.992 324.29C187.199 330.259 178.24 336.229 169.448 342.365C167.457 343.691 167.457 345.847 168.12 348.003C168.784 349.661 170.111 350.49 172.102 350.49C180.895 348.5 189.024 344.355 197.319 340.706C206.444 336.727 206.776 333.576 200.637 325.616C199.31 323.792 197.983 322.963 195.992 324.29ZM316.604 331.42C313.95 334.571 315.111 337.224 318.595 338.717C327.056 342.365 335.683 346.013 344.144 349.661C346.633 350.656 349.453 351.817 351.278 348.666C353.269 345.35 350.78 343.194 348.458 341.37C343.481 337.722 338.503 334.073 333.36 330.591C329.876 328.104 326.227 325.782 322.577 323.295C318.595 324.621 318.761 328.767 316.604 331.42ZM348.126 313.677C350.615 313.677 353.435 314.34 354.264 311.19C355.094 308.205 352.605 306.712 350.449 305.552C343.978 301.903 336.844 299.913 329.711 297.592C327.056 296.763 326.061 298.089 325.397 300.577C322.743 312.848 323.406 313.677 335.683 313.677C336.844 313.677 338.172 313.677 339.333 313.677C342.319 313.677 345.306 313.677 348.126 313.677ZM191.845 297.26C191.513 297.094 191.015 297.26 190.683 297.26C183.383 299.913 176.084 302.567 168.95 305.386C166.793 306.215 166.295 308.536 166.959 310.692C167.623 312.848 169.448 313.345 171.272 313.345C174.425 313.345 177.411 313.345 180.563 313.345C184.047 313.345 187.531 313.345 191.015 313.345C193.504 313.345 194.306 312.851 195.329 310.692C195.146 310.144 195.395 307.786 195.329 307.202C195.189 305.982 195.363 305.957 195.345 304.691C195.327 303.393 194.753 301.484 194.306 300.298C193.883 299.176 193.142 298.14 191.845 297.26ZM255.718 159.46C256.381 161.947 257.377 163.937 259.865 163.771C262.685 163.605 265.008 162.279 265.174 158.796C265.34 155.977 265.174 152.992 265.174 150.173H265.34C265.174 146.525 265.174 142.711 264.676 139.063C264.344 136.41 262.354 134.918 259.367 135.083C256.215 135.249 254.556 136.907 254.722 139.726C255.054 146.359 254.224 152.992 255.718 159.46ZM406.856 347.174C406.358 343.36 404.367 340.375 399.888 340.375C395.409 340.375 392.588 343.028 392.588 347.671C392.588 351.983 395.574 354.47 399.722 354.47C404.035 354.47 406.358 351.817 406.856 347.174ZM113.206 347.174C113.04 351.817 116.192 354.138 120.174 354.304C124.322 354.47 127.308 352.148 127.308 347.505C127.308 343.028 124.654 340.872 120.672 340.375C116.027 340.541 113.372 342.696 113.206 347.174Z" fill="url(#paint0_linear_141_9)"/>
<path d="M389.31 310.34C389.31 312.42 387.624 314.106 385.543 314.106C383.463 314.106 381.777 312.42 381.777 310.34C381.777 308.261 383.463 306.574 385.543 306.574C387.624 306.574 389.31 308.261 389.31 310.34Z" fill="#DC4FAB"/>
<path d="M135.712 310.34C135.712 312.42 134.026 314.106 131.946 314.106C129.866 314.106 128.179 312.42 128.179 310.34C128.179 308.261 129.866 306.574 131.946 306.574C134.026 306.574 135.712 308.261 135.712 310.34Z" fill="#DC4FAB"/>
<path d="M383.1 386.109C384.524 383.781 387.566 383.048 389.894 384.472L396.639 388.597C398.967 390.021 399.7 393.063 398.276 395.391C396.852 397.719 393.81 398.452 391.482 397.028L384.737 392.902C382.409 391.478 381.676 388.437 383.1 386.109Z" fill="#CB42AB"/>
<path d="M119.758 396.268C118.169 394.05 118.679 390.963 120.898 389.374L127.326 384.771C129.545 383.182 132.632 383.692 134.221 385.911C135.81 388.129 135.299 391.216 133.081 392.805L126.653 397.408C124.434 398.997 121.347 398.487 119.758 396.268Z" fill="#CB42AB"/>
<path d="M510.23 318.8C510.23 314.77 512.4 312.6 518.6 310.43C520.77 310.43 520.77 314.77 520.77 314.77C520.77 318.8 520.77 322.83 516.43 322.83C512.4 322.83 510.23 322.83 510.23 318.8ZM543.834 318.8C543.834 314.77 546.004 312.6 552.204 310.43C554.374 310.43 554.374 314.77 554.374 314.77C554.374 318.8 554.374 322.83 550.034 322.83C546.004 322.83 543.834 322.83 543.834 318.8ZM577.437 318.8C577.437 314.77 579.607 312.6 585.807 310.43C587.977 310.43 587.977 314.77 587.977 314.77C587.977 318.8 587.977 322.83 583.637 322.83C579.607 322.83 577.437 322.83 577.437 318.8ZM710.611 260.535H682.246C667.911 260.535 649.611 258.4 635.276 262.365V282.8C635.276 303.235 639.546 325.5 639.546 347.765C639.546 349.9 637.411 349.9 635.276 349.9C623.076 349.9 621.246 321.535 621.246 315.435V225.765C621.246 209.6 619.111 156.835 635.276 144.635L637.411 146.465V152.565C637.411 185.2 635.276 219.665 635.276 252.3C661.811 252.3 686.211 248.335 712.746 248.335C712.746 225.765 714.576 189.165 716.711 164.765C716.711 162.935 718.846 162.935 720.676 162.935H722.811L726.776 173V250.165L731.046 254.435V256.265L726.776 262.365V362.1C708.476 362.1 712.746 270.6 710.611 260.535ZM758.908 288.9C758.908 260.535 787.578 217.835 818.078 217.835C824.178 217.835 830.278 219.665 834.243 221.8C838.208 215.7 840.343 213.565 844.308 213.565C848.578 213.565 854.678 215.7 854.678 219.665C856.508 250.165 864.743 280.665 864.743 311.165C864.743 315.435 862.608 319.4 856.508 319.4C840.343 319.4 842.478 284.935 836.378 276.7C818.078 291.035 811.978 321.535 785.443 321.535C765.008 321.535 758.908 307.2 758.908 288.9ZM779.343 291.035C779.343 295 779.343 301.1 785.443 301.1C805.878 301.1 832.108 258.4 832.108 242.235C832.108 237.965 828.143 236.135 824.178 236.135C801.608 236.135 779.343 270.6 779.343 291.035ZM884.899 284.935C884.899 282.8 884.899 223.935 897.099 223.935C899.234 223.935 903.199 223.935 903.199 227.9V303.235L905.334 301.1C911.434 291.035 931.869 236.135 951.999 236.135C968.469 236.135 970.299 278.835 970.299 284.935C988.599 268.465 996.834 244.065 1017.27 227.9H1021.23C1041.67 227.9 1037.4 280.665 1037.4 286.765V292.865C1037.4 297.135 1035.57 321.535 1035.57 325.5H1031.3C1025.2 325.5 1021.23 319.4 1021.23 313.3V242.235C1002.93 252.3 986.769 284.935 978.534 298.965C976.399 301.1 974.569 301.1 970.299 301.1C948.034 301.1 951.999 266.635 948.034 254.435C941.934 258.4 935.834 270.6 931.869 278.835C927.599 284.935 913.569 311.165 911.434 317.265C911.434 317.265 905.334 325.5 901.369 325.5C884.899 325.5 884.899 291.035 884.899 284.935ZM1057.06 288.9C1057.06 260.535 1085.73 217.835 1116.23 217.835C1122.33 217.835 1128.43 219.665 1132.39 221.8C1136.36 215.7 1138.49 213.565 1142.46 213.565C1146.73 213.565 1152.83 215.7 1152.83 219.665C1154.66 250.165 1162.89 280.665 1162.89 311.165C1162.89 315.435 1160.76 319.4 1154.66 319.4C1138.49 319.4 1140.63 284.935 1134.53 276.7C1116.23 291.035 1110.13 321.535 1083.59 321.535C1063.16 321.535 1057.06 307.2 1057.06 288.9ZM1077.49 291.035C1077.49 295 1077.49 301.1 1083.59 301.1C1104.03 301.1 1130.26 258.4 1130.26 242.235C1130.26 237.965 1126.29 236.135 1122.33 236.135C1099.76 236.135 1077.49 270.6 1077.49 291.035ZM1183.05 301.1C1183.05 295 1187.32 230.035 1199.52 230.035C1201.35 230.035 1203.48 230.035 1203.48 234V246.2C1203.48 266.635 1203.48 276.7 1201.35 298.965C1221.78 286.765 1227.88 223.935 1260.52 223.935C1284.92 223.935 1294.98 276.7 1294.98 295C1294.98 297.135 1294.98 301.1 1291.02 301.1C1268.45 301.1 1274.55 246.2 1260.52 237.965C1233.98 262.365 1219.65 297.135 1205.62 327.635C1203.48 329.465 1199.52 333.735 1197.38 333.735C1183.05 333.735 1183.05 309.335 1183.05 301.1ZM1403.18 268.465C1390.98 288.9 1380.61 347.765 1348.28 347.765C1321.74 347.765 1315.64 317.265 1315.64 297.135C1315.64 268.465 1333.94 221.8 1370.54 221.8C1382.74 221.8 1392.81 234 1392.81 246.2C1384.88 246.2 1380.61 240.1 1374.51 240.1C1348.28 240.1 1333.94 280.665 1333.94 301.1C1333.94 309.335 1336.08 333.735 1348.28 333.735C1386.71 333.735 1409.28 189.165 1415.38 160.8C1417.21 156.835 1419.34 156.835 1421.48 156.835C1423.31 156.835 1425.44 156.835 1427.58 160.8V169.035C1427.58 197.4 1423.31 225.765 1423.31 254.435C1423.31 298.965 1431.54 345.935 1431.54 390.465C1409.28 390.465 1409.28 331.6 1407.14 317.265C1407.14 309.335 1403.18 276.7 1403.18 268.465ZM1462.03 236.135V201.365C1462.03 193.435 1462.03 142.5 1478.2 142.5C1480.33 142.5 1484.3 146.465 1486.43 148.6V158.665C1486.43 185.2 1482.47 209.6 1482.47 236.135C1482.47 252.3 1486.43 339.835 1514.8 339.835C1567.87 339.835 1586.17 154.7 1602.33 154.7C1608.43 154.7 1610.57 158.665 1610.57 164.765C1610.57 185.2 1608.43 207.465 1608.43 227.9C1608.43 266.635 1618.5 305.065 1618.5 341.665C1618.5 343.8 1614.53 347.765 1612.4 347.765C1594.1 347.765 1590.13 307.2 1590.13 295C1590.13 286.765 1586.17 244.065 1586.17 236.135C1584.03 244.065 1569.7 280.665 1567.87 288.9C1559.63 313.3 1543.47 353.865 1512.97 353.865C1464.17 353.865 1462.03 268.465 1462.03 236.135ZM1643.53 301.1C1643.53 295 1647.8 230.035 1660 230.035C1661.83 230.035 1663.96 230.035 1663.96 234V246.2C1663.96 266.635 1663.96 276.7 1661.83 298.965C1682.26 286.765 1688.36 223.935 1721 223.935C1745.4 223.935 1755.46 276.7 1755.46 295C1755.46 297.135 1755.46 301.1 1751.5 301.1C1728.93 301.1 1735.03 246.2 1721 237.965C1694.46 262.365 1680.13 297.135 1666.1 327.635C1663.96 329.465 1660 333.735 1657.86 333.735C1643.53 333.735 1643.53 309.335 1643.53 301.1ZM1778.26 278.835C1778.26 272.735 1773.99 236.135 1790.46 236.135C1800.52 236.135 1800.52 313.3 1800.52 329.465C1800.52 333.735 1802.66 345.935 1794.42 345.935C1778.26 345.935 1778.26 288.9 1778.26 278.835ZM1778.26 176.965C1778.26 173 1778.26 158.665 1786.19 158.665C1796.56 158.665 1796.56 185.2 1796.56 193.435C1796.56 197.4 1794.42 199.535 1790.46 199.535C1780.09 199.535 1778.26 183.065 1778.26 176.965ZM1827.95 250.165V231.865C1830.08 227.9 1830.08 225.765 1834.05 225.765C1850.21 225.765 1842.28 331.6 1872.78 331.6C1907.25 331.6 1899.01 191.3 1919.45 191.3C1919.45 219.665 1915.48 349.9 1872.78 349.9C1830.08 349.9 1827.95 278.835 1827.95 250.165ZM1941.97 278.835C1941.97 246.2 1964.54 205.635 1999.01 205.635C2015.17 205.635 2029.51 219.665 2029.51 236.135C2029.51 252.3 2013.34 274.565 1995.04 274.565H1958.44C1958.44 315.435 2023.41 317.265 2051.77 315.435C2053.91 315.435 2053.91 317.265 2053.91 319.4C2053.91 326.72 2042.62 328.245 2032.56 328.245C1998.09 328.245 1941.97 324.28 1941.97 278.835ZM2001.14 221.8C1982.84 221.8 1960.27 246.2 1960.27 264.5C1978.57 264.5 2013.34 262.365 2013.34 236.135C2013.34 227.9 2009.07 221.8 2001.14 221.8ZM2073.67 237.965V223.935C2075.81 219.665 2077.64 219.665 2079.77 219.665C2089.84 219.665 2091.97 248.335 2091.97 254.435C2091.97 260.535 2095.94 282.8 2095.94 288.9L2098.07 291.035C2104.17 276.7 2120.34 221.8 2142.91 221.8C2146.87 221.8 2150.84 223.935 2150.84 230.035C2150.84 236.135 2116.37 286.765 2110.27 307.2C2108.14 313.3 2102.04 341.665 2100.21 347.765C2098.07 352.035 2098.07 353.865 2091.97 353.865C2075.81 353.865 2073.67 242.235 2073.67 237.965ZM2169.23 319.4C2169.23 317.265 2169.23 313.3 2171.37 313.3H2205.83C2210.1 313.3 2218.03 309.335 2218.03 305.065C2218.03 276.7 2171.37 262.365 2171.37 231.865C2171.37 215.7 2189.67 203.5 2204 203.5C2218.03 203.5 2222.3 209.6 2222.3 223.935H2220.17C2220.17 221.8 2214.07 217.835 2214.07 215.7L2211.93 213.565C2204 213.565 2189.67 223.935 2189.67 231.865C2189.67 260.535 2234.5 272.735 2234.5 305.065C2234.5 325.5 2216.2 331.6 2197.9 331.6C2189.67 331.6 2169.23 331.6 2169.23 319.4ZM2255.91 291.035C2255.91 266.635 2264.14 217.835 2296.78 217.835C2319.04 217.835 2339.48 231.865 2339.48 256.265C2339.48 282.8 2321.18 331.6 2288.54 331.6C2266.28 331.6 2255.91 309.335 2255.91 291.035ZM2276.34 301.1C2278.48 309.335 2282.44 313.3 2288.54 313.3C2310.81 313.3 2325.14 272.735 2325.14 254.435C2325.14 236.135 2312.94 236.135 2298.61 236.135H2288.54C2278.48 240.1 2276.34 278.835 2276.34 288.9V301.1ZM2359.73 318.8C2359.73 314.77 2361.9 312.6 2368.1 310.43C2370.27 310.43 2370.27 314.77 2370.27 314.77C2370.27 318.8 2370.27 322.83 2365.93 322.83C2361.9 322.83 2359.73 322.83 2359.73 318.8ZM2393.33 318.8C2393.33 314.77 2395.5 312.6 2401.7 310.43C2403.87 310.43 2403.87 314.77 2403.87 314.77C2403.87 318.8 2403.87 322.83 2399.53 322.83C2395.5 322.83 2393.33 322.83 2393.33 318.8ZM2426.93 318.8C2426.93 314.77 2429.1 312.6 2435.3 310.43C2437.47 310.43 2437.47 314.77 2437.47 314.77C2437.47 318.8 2437.47 322.83 2433.13 322.83C2429.1 322.83 2426.93 322.83 2426.93 318.8Z" fill="#C242AD"/>
<defs>
<linearGradient id="paint0_linear_141_9" x1="260.03" y1="64.8817" x2="260.03" y2="454.118" gradientUnits="userSpaceOnUse">
<stop stop-color="#F99BA1"/>
<stop offset="0.5" stop-color="#FB82A0"/>
<stop offset="0.75" stop-color="#D848AC"/>
<stop offset="1" stop-color="#BB3BA9"/>
</linearGradient>
</defs>
</svg>
